<svg width="148" height="148" viewBox="0 0 148 148" fill="none" xmlns="http://www.w3.org/2000/svg">
<path d="M74 148C114.869 148 148 114.869 148 74C148 33.1309 114.869 0 74 0C33.1309 0 0 33.1309 0 74C0 114.869 33.1309 148 74 148Z" fill="#F07867"/>
<path fill-rule="evenodd" clip-rule="evenodd" d="M45.2474 46.2595C41.1158 50.4607 40.927 57.169 44.6789 61.6076L60.2427 45.8014C55.9366 41.926 49.3749 42.0647 45.2474 46.2595ZM73.9983 46.6904C58.5125 46.6904 45.9596 59.5459 45.9596 75.4005C45.9596 83.2668 49.0527 90.3892 54.0566 95.576C53.8098 95.8997 53.5263 96.2712 53.2054 96.6917L53.2011 96.6973L53.1985 96.7007L53.1983 96.701L53.1954 96.7048C52.3595 97.8002 51.2711 99.2263 49.9188 101.004C48.8926 102.354 49.1307 104.293 50.4463 105.346C50.9984 105.786 51.6511 106 52.3017 106C53.2007 106 54.0935 105.592 54.6887 104.81C54.6887 104.81 57.2174 101.486 58.7505 99.4808C63.1428 102.406 68.3725 104.119 74.0003 104.119C79.6282 104.119 84.8599 102.406 89.2542 99.4808C90.7854 101.486 93.314 104.81 93.314 104.81C93.9113 105.592 94.8041 106 95.701 106C96.3496 106 97.0064 105.786 97.5544 105.346C98.8721 104.293 99.1081 102.349 98.0819 101.004C96.6357 99.1029 95.4914 97.6026 94.6348 96.4796L93.9441 95.5739C98.9459 90.3892 102.037 83.269 102.037 75.4005C102.037 59.5459 89.4841 46.6904 73.9983 46.6904ZM51.3617 75.4005C51.3617 62.6206 61.5193 52.2218 74.0003 52.2218C86.4855 52.2218 96.639 62.6206 96.639 75.4005C96.639 88.1867 86.4875 98.5876 74.0003 98.5876C61.5152 98.5876 51.3617 88.1867 51.3617 75.4005ZM75.8619 63.457L75.8475 71.5062C77.2658 72.2103 78.2428 73.6835 78.2448 75.4026C78.2448 77.8027 76.3504 79.7508 74.0003 79.7508C72.3604 79.7508 70.9545 78.7904 70.2484 77.397L57.0449 77.3739C56.0495 77.3718 55.247 76.5417 55.249 75.5329C55.2511 74.5136 56.0557 73.6856 57.0511 73.6877L70.0863 73.7129C70.5009 72.7083 71.2788 71.9034 72.2475 71.4516L72.2619 63.4528C72.2639 62.4315 73.0706 61.6076 74.064 61.6097C75.0594 61.6118 75.8619 62.4378 75.8619 63.457ZM87.76 45.8035C92.0681 41.926 98.6196 42.0668 102.757 46.2595C106.885 50.4607 107.072 57.169 103.32 61.6097L87.76 45.8035Z" fill="white"/>
</svg>
