<svg width="490" height="504" viewBox="0 0 490 504" fill="none" xmlns="http://www.w3.org/2000/svg">
<g filter="url(#filter0_d)">
<rect x="60" y="60" width="370" height="384" rx="8" fill="white"/>
</g>
<mask id="mask0" mask-type="alpha" maskUnits="userSpaceOnUse" x="60" y="217" width="370" height="102">
<rect x="60" y="217" width="370" height="102" rx="8" fill="white"/>
</mask>
<g mask="url(#mask0)">
<path d="M494 193.001V454.215H-3.87754L0.457422 310.482C1.58222 309.84 3.17371 308.945 5.13449 307.88C9.24684 305.647 14.9666 302.671 21.4008 299.7C34.493 293.653 49.7658 288 60.5263 288C65.6232 288 69.1523 289.286 72.0501 291.14C74.9224 292.979 77.2561 295.407 80.0315 298.294C80.2056 298.475 80.3814 298.658 80.5592 298.843C83.4658 301.862 86.8296 305.265 91.3579 307.842C95.9738 310.469 101.6 312.137 109 312.137C117.236 312.137 124.067 307.849 129.945 302.31C135.128 297.425 140.018 291.125 144.787 284.979C145.396 284.194 146.003 283.412 146.608 282.635C152.076 275.624 157.49 268.972 163.512 264.049C169.465 259.182 175.759 256.215 183 256.215C198.337 256.215 207.101 263.248 216.994 271.189L217.042 271.227C226.995 279.214 238.003 288 257 288C267.17 288 275.13 283.181 281.682 276.586C288.144 270.08 293.562 261.509 298.636 253.443L298.84 253.119C303.957 244.984 308.734 237.389 314.155 231.788C319.56 226.205 325.178 223.054 331.905 223.214C346.087 223.551 354.403 232.831 364.391 243.976C364.601 244.21 364.811 244.444 365.022 244.68C374.986 255.791 386.558 268.215 407 268.215C417.621 268.215 428.827 262.256 439.267 254.227C449.838 246.096 460.259 235.342 469.406 224.717C478.572 214.071 486.554 203.442 492.239 195.484C492.853 194.624 493.44 193.796 494 193.001Z" stroke="#A869F0" stroke-width="8"/>
</g>
<path d="M347 95C350.314 95 353 92.3137 353 89C353 85.6863 350.314 83 347 83C343.686 83 341 85.6863 341 89C341 92.3137 343.686 95 347 95Z" fill="#F28A4B"/>
<path d="M371 95C374.314 95 377 92.3137 377 89C377 85.6863 374.314 83 371 83C367.686 83 365 85.6863 365 89C365 92.3137 367.686 95 371 95Z" fill="#FACE55"/>
<path d="M395 95C398.314 95 401 92.3137 401 89C401 85.6863 398.314 83 395 83C391.686 83 389 85.6863 389 89C389 92.3137 391.686 95 395 95Z" fill="#F1A4E5"/>
<rect x="109" y="129" width="100" height="28" rx="8" fill="#6483F6"/>
<rect x="109" y="175" width="180" height="12" rx="6" fill="#79E5F8"/>
<rect x="195" y="357" width="132" height="12" rx="6" fill="#78E4F7"/>
<rect x="195" y="387" width="100" height="12" rx="6" fill="#79E5F8"/>
<path d="M366.5 132.402C365.572 131.866 364.428 131.866 363.5 132.402L344.447 143.402C343.519 143.938 342.947 144.928 342.947 146V168C342.947 169.072 343.519 170.062 344.447 170.598L363.5 181.598C364.428 182.134 365.572 182.134 366.5 181.598L385.553 170.598C386.481 170.062 387.053 169.072 387.053 168V146C387.053 144.928 386.481 143.938 385.553 143.402L366.5 132.402Z" stroke="#F07867" stroke-width="6" stroke-linecap="round" stroke-linejoin="round"/>
<path d="M130 407C146.569 407 160 393.569 160 377C160 360.431 146.569 347 130 347C113.431 347 100 360.431 100 377C100 393.569 113.431 407 130 407Z" stroke="#78E4F7" stroke-width="6"/>
<path fill-rule="evenodd" clip-rule="evenodd" d="M143.991 368.607C142.82 367.435 140.92 367.435 139.749 368.607L127.728 380.627L121.364 374.263C120.192 373.092 118.293 373.092 117.121 374.263C115.95 375.435 115.95 377.335 117.121 378.506L125.607 386.991C126.778 388.163 128.678 388.163 129.849 386.991L143.991 372.849C145.163 371.678 145.163 369.778 143.991 368.607Z" fill="#6481F4"/>
<defs>
<filter id="filter0_d" x="0" y="0" width="490" height="504" filterUnits="userSpaceOnUse" color-interpolation-filters="sRGB">
<feFlood flood-opacity="0" result="BackgroundImageFix"/>
<feColorMatrix in="SourceAlpha" type="matrix" values="0 0 0 0 0 0 0 0 0 0 0 0 0 0 0 0 0 0 127 0"/>
<feOffset/>
<feGaussianBlur stdDeviation="30"/>
<feColorMatrix type="matrix" values="0 0 0 0 0.262745 0 0 0 0 0.0901961 0 0 0 0 0 0 0 0 0.05 0"/>
<feBlend mode="normal" in2="BackgroundImageFix" result="effect1_dropShadow"/>
<feBlend mode="normal" in="SourceGraphic" in2="effect1_dropShadow" result="shape"/>
</filter>
</defs>
</svg>
