<svg width="370" height="102" viewBox="0 0 370 102" fill="none" xmlns="http://www.w3.org/2000/svg">
<path d="M434 -23.9985V237.215H-63.8775L-59.5426 93.4815C-58.4178 92.8396 -56.8263 91.9453 -54.8655 90.8803C-50.7532 88.6467 -45.0334 85.6713 -38.5992 82.6998C-25.507 76.6534 -10.2342 71 0.526321 71C5.62321 71 9.15233 72.2857 12.0501 74.1404C14.9224 75.9788 17.2561 78.4065 20.0315 81.2939C20.2056 81.475 20.3814 81.6579 20.5592 81.8425C23.4658 84.8617 26.8296 88.2648 31.3579 90.8418C35.9738 93.4687 41.6 95.1367 49 95.1367C57.2359 95.1367 64.0675 90.8485 69.9448 85.31C75.1283 80.4253 80.0175 74.1249 84.7871 67.9787C85.3961 67.194 86.0031 66.4118 86.6085 65.6354C92.0759 58.6238 97.4905 51.9723 103.512 47.0493C109.465 42.1817 115.759 39.2148 123 39.2148C138.337 39.2148 147.101 46.2485 156.994 54.1886L157.042 54.227C166.995 62.2142 178.003 71 197 71C207.17 71 215.13 66.1814 221.682 59.5858C228.144 53.0798 233.562 44.5094 238.636 36.4428L238.84 36.119C243.957 27.9837 248.734 20.3887 254.155 14.7883C259.56 9.20471 265.178 6.05363 271.905 6.21368C286.087 6.55113 294.403 15.8309 304.391 26.9761C304.601 27.2098 304.811 27.4444 305.022 27.6797C314.986 38.7914 326.558 51.2148 347 51.2148C357.621 51.2148 368.827 45.2556 379.267 37.227C389.838 29.0964 400.259 18.3421 409.406 7.71712C418.572 -2.92894 426.554 -13.5581 432.239 -21.5161C432.853 -22.3755 433.44 -23.2041 434 -23.9985Z" stroke="#A869F0" stroke-width="8"/>
</svg>
