<svg width="138" height="96" viewBox="0 0 138 96" fill="none" xmlns="http://www.w3.org/2000/svg">
<rect width="138" height="96" rx="8" fill="#AE6CF8"/>
<path d="M10.0451 8.14817C7.55068 5.58571 6.30345 4.30447 6.22748 3.20721C6.16154 2.25486 6.55279 1.32799 7.28119 0.71094C8.12043 0 9.90847 0 13.4846 0H124.483C128.068 0 129.86 0 130.7 0.712115C131.428 1.33016 131.819 2.25834 131.752 3.21144C131.674 4.30962 130.421 5.59145 127.915 8.1551L72.3043 65.0523C71.1032 66.2811 70.5027 66.8955 69.8073 67.1245C69.1959 67.3258 68.5359 67.3252 67.9249 67.1226C67.23 66.8922 66.6307 66.2766 65.4321 65.0453L10.0451 8.14817Z" fill="#9F5AEC"/>
<path d="M10.738 8.55432C7.44616 5.93191 5.80024 4.6207 5.61762 3.47036C5.45956 2.4747 5.81216 1.46622 6.55617 0.785953C7.41577 0 9.52013 0 13.7288 0H124.228C128.448 0 130.558 0 131.418 0.787148C132.162 1.46842 132.514 2.47817 132.355 3.47444C132.17 4.62554 130.517 5.93709 127.211 8.56019L71.8501 52.4852C70.7827 53.3321 70.249 53.7556 69.658 53.9177C69.1366 54.0607 68.5863 54.0602 68.0652 53.9161C67.4745 53.7529 66.9416 53.3284 65.8758 52.4793L10.738 8.55432Z" fill="#BC80FF"/>
</svg>
